<svg width="192" height="192" viewBox="0 0 192 192" fill="none" xmlns="http://www.w3.org/2000/svg">
<path d="M122.179 94.7988C122.179 114.344 106.738 130.189 87.691 130.189C75.2607 130.189 64.3663 123.44 58.2973 113.319C56.6966 120.579 50.5544 126.102 43.05 126.667C52.8749 141.132 69.2058 150.598 87.691 150.598C117.722 150.598 142.067 125.616 142.067 94.7988C142.067 63.982 117.722 39 87.691 39C57.6903 39 33.3642 63.9314 33.315 94.7051C35.8046 93.2457 38.6951 92.4105 41.7781 92.4105C46.2128 92.4105 50.2491 94.1387 53.2671 96.9667C53.2248 96.2496 53.2034 95.5267 53.2034 94.7988C53.2034 75.2535 68.644 59.4089 87.691 59.4089C106.738 59.4089 122.179 75.2535 122.179 94.7988Z" fill="url(#paint0_linear_103_3)"/>
<path fill-rule="evenodd" clip-rule="evenodd" d="M156.455 152.768C176.105 152.651 192 136.269 192 116.076C192 95.8116 175.991 79.3838 156.243 79.3838C139.946 79.3838 124.506 93.4963 120.486 105.655C116.466 117.813 108.303 124.558 99.5395 128.018C99.5558 128.067 99.5725 128.117 99.5895 128.167C90.685 131.009 85.5484 130.78 76.5124 128.018H41.7782V152.769H156.118C156.16 152.769 156.201 152.769 156.243 152.769C156.284 152.769 156.325 152.769 156.366 152.769H156.455V152.768ZM172.535 116.077C172.535 125.31 165.241 132.794 156.243 132.794C147.245 132.794 139.951 125.31 139.951 116.077C139.951 106.843 147.245 99.3586 156.243 99.3586C165.241 99.3586 172.535 106.843 172.535 116.077Z" fill="url(#paint1_linear_103_3)"/>
<path d="M41.929 66.613C33.6363 66.613 25.5297 69.1396 18.6345 73.8731C11.7393 78.6067 6.36518 85.3346 3.19167 93.2062C0.0181663 101.078 -0.812167 109.74 0.805673 118.096C2.42351 126.452 6.41686 134.128 12.2807 140.153C18.1446 146.178 25.6157 150.281 33.7491 151.943C41.8825 153.605 50.3131 152.752 57.9746 149.491C65.6361 146.231 72.1845 140.709 76.7917 133.625C81.399 126.541 83.8581 118.212 83.8581 109.692C83.8581 104.035 82.7735 98.4328 80.6664 93.2062C78.5593 87.9797 75.4708 83.2307 71.5773 79.2305C67.6839 75.2303 63.0616 72.0571 57.9746 69.8922C52.8875 67.7273 47.4352 66.613 41.929 66.613V66.613ZM41.929 126.37C38.7184 126.37 35.5798 125.392 32.9102 123.559C30.2407 121.727 28.16 119.122 26.9313 116.074C25.7027 113.027 25.3812 109.673 26.0076 106.438C26.6339 103.203 28.18 100.231 30.4503 97.8983C32.7206 95.5657 35.6131 93.9773 38.7621 93.3337C41.911 92.6902 45.175 93.0205 48.1413 94.2828C51.1076 95.5452 53.6429 97.6829 55.4266 100.426C57.2104 103.168 58.1624 106.393 58.1624 109.692C58.1651 111.884 57.7472 114.055 56.9326 116.081C56.118 118.107 54.9227 119.948 53.415 121.499C51.9074 123.05 50.1169 124.28 48.146 125.12C46.1752 125.959 44.0626 126.391 41.929 126.391V126.37Z" fill="#6763F7"/>
<path d="M155.45 57.2092C160.217 57.2092 164.082 53.2387 164.082 48.3407C164.082 43.4427 160.217 39.4722 155.45 39.4722C150.683 39.4722 146.818 43.4427 146.818 48.3407C146.818 53.2387 150.683 57.2092 155.45 57.2092Z" fill="#FFAD4D"/>
<defs>
<linearGradient id="paint0_linear_103_3" x1="70.1298" y1="23.1505" x2="139.433" y2="93.227" gradientUnits="userSpaceOnUse">
<stop stop-color="#6763F7"/>
<stop offset="1" stop-color="#4A40C6"/>
</linearGradient>
<linearGradient id="paint1_linear_103_3" x1="116.043" y1="105.438" x2="116.043" y2="152.769" gradientUnits="userSpaceOnUse">
<stop stop-color="#6864F9"/>
<stop offset="1" stop-color="#493FC5"/>
</linearGradient>
</defs>
</svg>
